<?xml version="1.0" ?>
<!-- Uploaded to: SVG Repo, www.svgrepo.com, Generator: SVG Repo Mixer Tools -->
<svg width="800px" height="800px" viewBox="0 0 64 64" xmlns="http://www.w3.org/2000/svg">
<defs>
<style>.cls-1{fill:#d8d8fc;}.cls-2{fill:#fd9200;}.cls-3{fill:#61729b;}.cls-4{fill:#4bb9ec;}.cls-5{fill:#f2f2fc;}.cls-6{fill:#fdbf00;}</style>
</defs>
<title/>
<g id="certificate">
<path class="cls-1" d="M26.279,44.8A14.386,14.386,0,0,1,45.106,23.132V13h-7a1,1,0,0,1-1-1V5h-30V59h38V46.862l-.432-.432A14.4,14.4,0,0,1,26.279,44.8Zm.039,2.2a1,1,0,0,1,0,2H10.106a1,1,0,1,1,0-2Zm-4.212-4a1,1,0,0,1,0,2h-12a1,1,0,1,1,0-2Zm-13-3a1,1,0,0,1,1-1h9.788a1,1,0,0,1,0,2H10.106A1,1,0,0,1,9.106,40ZM16.55,7a8.637,8.637,0,0,1,4.84,15.79v8.122a1,1,0,0,1-1.707.707l-3.112-3.112L13.46,31.619a1,1,0,0,1-1.707-.707V22.819A8.637,8.637,0,0,1,16.55,7ZM42.106,57h-32a1,1,0,1,1,0-2h32a1,1,0,0,1,0,2Zm0-4h-32a1,1,0,1,1,0-2h32a1,1,0,0,1,0,2Z"/>
<polygon class="cls-1" points="39.106 6.414 39.106 11 43.692 11 39.106 6.414"/>
<path class="cls-2" d="M13.753,23.811V28.5l2.111-2.111a1,1,0,0,1,1.414,0L19.39,28.5V23.8a8.678,8.678,0,0,1-5.637.015Z"/>
<path d="M42.106,55h-32a1,1,0,1,0,0,2h32a1,1,0,0,0,0-2Z"/>
<path d="M42.106,51h-32a1,1,0,1,0,0,2h32a1,1,0,0,0,0-2Z"/>
<path d="M9.106,48a1,1,0,0,0,1,1H26.318a1,1,0,0,0,0-2H10.106A1,1,0,0,0,9.106,48Z"/>
<path d="M9.106,44a1,1,0,0,0,1,1h12a1,1,0,0,0,0-2h-12A1,1,0,0,0,9.106,44Z"/>
<path d="M10.106,41h9.788a1,1,0,0,0,0-2H10.106a1,1,0,1,0,0,2Z"/>
<path class="cls-3" d="M45.209,25.866a12.386,12.386,0,1,0,0,17.516A12.393,12.393,0,0,0,45.209,25.866Zm-1.29,16.226a10.561,10.561,0,1,1,0-14.936A10.566,10.566,0,0,1,43.919,42.092Z"/>
<path class="cls-4" d="M42.5,28.571a8.564,8.564,0,0,0-12.107,0h0a8.561,8.561,0,1,0,12.107,0Z"/>
<path d="M43.919,27.156a10.561,10.561,0,1,0,0,14.936A10.568,10.568,0,0,0,43.919,27.156ZM30.4,40.678a8.565,8.565,0,0,1,0-12.107h0a8.561,8.561,0,1,1,0,12.108Z"/>
<rect class="cls-5" height="4.662" transform="translate(-18.703 47.726) rotate(-44.992)" width="1.067" x="47.738" y="44.113"/>
<rect class="cls-3" height="5.211" transform="translate(-20.734 52.641) rotate(-45)" width="4.134" x="51.109" y="48.743"/>
<path d="M58.6,51.023l-5.1-5.1a1,1,0,0,0-1.414,0l-.378.377-3.453-3.454a14.4,14.4,0,0,0-1.151-17.888V12a1,1,0,0,0-.293-.707l-8-8A1,1,0,0,0,38.106,3h-32a1,1,0,0,0-1,1V60a1,1,0,0,0,1,1h40a1,1,0,0,0,1-1V48.862l1.022,1.022-.377.377a1,1,0,0,0,0,1.414l5.1,5.1a1,1,0,0,0,1.414,0L58.6,52.437A1,1,0,0,0,58.6,51.023Zm-5.044,3.63-3.685-3.685,2.923-2.923L56.48,51.73ZM45.106,59h-38V5h30v7a1,1,0,0,0,1,1h7V23.132a14.386,14.386,0,1,0-.432,23.3l.432.432Zm4.436-10.53-3.3-3.3L47,44.419l3.3,3.3Zm-4.333-5.088a12.386,12.386,0,1,1,0-17.516A12.391,12.391,0,0,1,45.209,43.382Zm-6.1-36.968L43.692,11H39.106Z"/>
<circle class="cls-6" cx="16.55" cy="15.637" r="6.637"/>
<path d="M11.753,22.819v8.093a1,1,0,0,0,1.707.707l3.111-3.112,3.112,3.112a1,1,0,0,0,1.707-.707V22.79a8.637,8.637,0,1,0-9.637.029ZM16.55,9a6.637,6.637,0,1,1-6.637,6.637A6.64,6.64,0,0,1,16.55,9Zm2.84,19.5-2.112-2.111a1,1,0,0,0-1.414,0L13.753,28.5V23.811A8.678,8.678,0,0,0,19.39,23.8Z"/>
</g>
</svg>